<svg width="25" height="20" viewBox="0 0 25 20" fill="none" xmlns="http://www.w3.org/2000/svg">
<path fill-rule="evenodd" clip-rule="evenodd" d="M12.1111 18.4583C14.3519 19.4861 16.5741 20 18.7778 20C19.127 20 19.418 19.8836 19.6508 19.6508C19.8836 19.418 20 19.127 20 18.7778V14.7778C20 14.5134 19.9105 14.2745 19.7315 14.061C19.5525 13.8475 19.3272 13.7037 19.0556 13.6296L15.5741 12.8889C15.3309 12.8519 15.0834 12.8719 14.8315 12.9491C14.5796 13.0263 14.3642 13.1605 14.1852 13.3519L11.5556 16.0371C10.7654 15.6049 10.0124 15.1127 9.29631 14.5602C8.58025 14.0077 7.89815 13.4013 7.25 12.7408C6.61419 12.1235 6.03239 11.4738 5.50461 10.7917C4.97683 10.1096 4.49072 9.38272 4.04628 8.61111L6.79206 5.83753C6.94302 5.68658 7.0432 5.50617 7.09258 5.29628C7.14197 5.08641 7.1477 4.84345 7.10978 4.56742L6.37036 0.944444C6.30864 0.679018 6.18209 0.45525 5.99072 0.273139C5.79937 0.0910465 5.57407 0 5.31481 0H1.22222C0.873019 0 0.582009 0.116398 0.349194 0.349194C0.116398 0.582009 0 0.873019 0 1.22222C0 3.42593 0.513889 5.64815 1.54167 7.88889C2.56944 10.1296 4.02778 12.1944 5.91667 14.0833C7.80556 15.9722 9.87037 17.4306 12.1111 18.4583ZM5.25 4.75925L3.13889 6.88889C2.73765 5.94445 2.43826 5.06172 2.24072 4.24072C2.0432 3.41974 1.91667 2.62344 1.86111 1.85183H4.66667L5.25 4.75925ZM15.6713 17.75C14.8287 17.5401 14.034 17.2654 13.287 16.9259L15.3704 14.7685L18.1482 15.3333V18.1296C17.3395 18.0864 16.5139 17.9599 15.6713 17.75ZM16.8539 9.84028C16.9664 9.94676 17.1057 10 17.2719 10C17.4382 10 17.5775 9.94676 17.69 9.84028C17.8024 9.7338 17.8586 9.60185 17.8586 9.44444V8.83333C18.4649 8.75 18.9733 8.53704 19.384 8.19444C19.7947 7.85185 20 7.35185 20 6.69444C20 6.16667 19.8264 5.70139 19.4793 5.29861C19.1322 4.89583 18.6213 4.60185 17.9466 4.41667C17.2231 4.22222 16.7146 4.03704 16.4213 3.86111C16.1279 3.68519 15.9813 3.44444 15.9813 3.13889C15.9813 2.87037 16.0937 2.64583 16.3186 2.46528C16.5435 2.28472 16.8711 2.19444 17.3013 2.19444C17.5555 2.19444 17.7682 2.22917 17.9393 2.29861C18.1104 2.36806 18.2595 2.46759 18.3866 2.59722C18.5138 2.72685 18.6506 2.81713 18.7973 2.86806C18.944 2.91898 19.0858 2.91667 19.2227 2.86111C19.3889 2.7963 19.4989 2.68981 19.5527 2.54167C19.6064 2.39352 19.5893 2.25926 19.5013 2.13889C19.3253 1.88889 19.1004 1.67824 18.8266 1.50694C18.5529 1.33565 18.2302 1.22222 17.8586 1.16667V0.555556C17.8586 0.398148 17.8024 0.266204 17.69 0.159722C17.5775 0.0532407 17.4382 0 17.2719 0C17.1057 0 16.9664 0.0532407 16.8539 0.159722C16.7415 0.266204 16.6853 0.398148 16.6853 0.555556V1.16667C16.255 1.21296 15.8346 1.40278 15.4239 1.73611C15.0132 2.06944 14.8079 2.53704 14.8079 3.13889C14.8079 3.63889 14.9644 4.0625 15.2772 4.40972C15.5901 4.75694 16.167 5.05556 17.0079 5.30556C17.7902 5.5463 18.2889 5.76157 18.504 5.95139C18.7191 6.1412 18.8266 6.39815 18.8266 6.72222C18.8266 7.08333 18.6873 7.34954 18.4086 7.52083C18.13 7.69213 17.7902 7.77778 17.3893 7.77778C17.0177 7.77778 16.7048 7.70602 16.4506 7.5625C16.1964 7.41898 15.9861 7.20833 15.8199 6.93056C15.7417 6.79167 15.6293 6.69213 15.4826 6.63194C15.3359 6.57176 15.1941 6.56944 15.0572 6.625C14.891 6.68982 14.7761 6.79398 14.7126 6.9375C14.649 7.08102 14.6515 7.21759 14.7199 7.34722C14.9252 7.76389 15.1941 8.08796 15.5266 8.31944C15.859 8.55093 16.2453 8.71296 16.6853 8.80556V9.44444C16.6853 9.60185 16.7415 9.7338 16.8539 9.84028Z" fill="white"/>
</svg>
