<svg width="22" height="20" viewBox="0 0 22 20" fill="none" xmlns="http://www.w3.org/2000/svg">
<path d="M2.1763 17.0588V18.2353V1.76468V17.0588ZM2.53833 20C1.95161 20 1.45048 19.7922 1.03495 19.3767C0.619396 18.9611 0.411621 18.46 0.411621 17.8733V2.12671C0.411621 1.53999 0.619396 1.03886 1.03495 0.623325C1.45048 0.207775 1.95161 0 2.53833 0H18.2849C18.8716 0 19.3728 0.207775 19.7883 0.623325C20.2038 1.03886 20.4116 1.53999 20.4116 2.12671V5.32808H18.6469V2.12671C18.6469 2.02112 18.613 1.93439 18.5451 1.86651C18.4772 1.79862 18.3905 1.76468 18.2849 1.76468H2.53833C2.43274 1.76468 2.34601 1.79862 2.27813 1.86651C2.21024 1.93439 2.1763 2.02112 2.1763 2.12671V17.8733C2.1763 17.9789 2.21024 18.0656 2.27813 18.1335C2.34601 18.2014 2.43274 18.2353 2.53833 18.2353H18.2849C18.3905 18.2353 18.4772 18.2014 18.5451 18.1335C18.613 18.0656 18.6469 17.9789 18.6469 17.8733V14.6719H20.4116V17.8733C20.4116 18.46 20.2038 18.9611 19.7883 19.3767C19.3728 19.7922 18.8716 20 18.2849 20H2.53833ZM11.9501 15.2941C11.3634 15.2941 10.8623 15.0863 10.4467 14.6708C10.0312 14.2552 9.82341 13.7541 9.82341 13.1674V6.83261C9.82341 6.24588 10.0312 5.74475 10.4467 5.32922C10.8623 4.91367 11.3634 4.7059 11.9501 4.7059H19.4614C20.0481 4.7059 20.5492 4.91367 20.9648 5.32922C21.3803 5.74475 21.5881 6.24588 21.5881 6.83261V13.1674C21.5881 13.7541 21.3803 14.2552 20.9648 14.6708C20.5492 15.0863 20.0481 15.2941 19.4614 15.2941H11.9501ZM19.4614 13.5294C19.567 13.5294 19.6537 13.4955 19.7216 13.4276C19.7895 13.3597 19.8234 13.273 19.8234 13.1674V6.83261C19.8234 6.72702 19.7895 6.64028 19.7216 6.5724C19.6537 6.50452 19.567 6.47058 19.4614 6.47058H11.9501C11.8445 6.47058 11.7578 6.50452 11.6899 6.5724C11.622 6.64028 11.5881 6.72702 11.5881 6.83261V13.1674C11.5881 13.273 11.622 13.3597 11.6899 13.4276C11.7578 13.4955 11.8445 13.5294 11.9501 13.5294H19.4614ZM15.1175 11.7647C15.6077 11.7647 16.0244 11.5931 16.3675 11.25C16.7107 10.9069 16.8822 10.4902 16.8822 10C16.8822 9.5098 16.7107 9.09313 16.3675 8.75C16.0244 8.40686 15.6077 8.23529 15.1175 8.23529C14.6273 8.23529 14.2107 8.40686 13.8675 8.75C13.5244 9.09313 13.3528 9.5098 13.3528 10C13.3528 10.4902 13.5244 10.9069 13.8675 11.25C14.2107 11.5931 14.6273 11.7647 15.1175 11.7647Z" fill="white"/>
</svg>
