<svg width="21" height="20" viewBox="0 0 21 20" fill="none" xmlns="http://www.w3.org/2000/svg">
<path d="M10.9093 15.825C11.1755 15.825 11.4003 15.7331 11.5836 15.5493C11.7669 15.3655 11.8586 15.1405 11.8586 14.8743C11.8586 14.6081 11.7667 14.3833 11.5829 14.2C11.3991 14.0167 11.1741 13.925 10.9079 13.925C10.6417 13.925 10.4169 14.0169 10.2336 14.2007C10.0503 14.3845 9.95859 14.6095 9.95859 14.8757C9.95859 15.1419 10.0505 15.3667 10.2343 15.55C10.4181 15.7333 10.6431 15.825 10.9093 15.825ZM10.8152 20C9.43634 20 8.14051 19.7375 6.92774 19.2125C5.71498 18.6875 4.65443 17.9708 3.74609 17.0625C2.83776 16.1542 2.12109 15.093 1.59609 13.879C1.07109 12.665 0.808594 11.3678 0.808594 9.9875C0.808594 8.60718 1.07109 7.31003 1.59609 6.09602C2.12109 4.88201 2.83776 3.825 3.74609 2.925C4.65443 2.025 5.7156 1.3125 6.92962 0.7875C8.14362 0.2625 9.44078 0 10.8211 0C12.2014 0 13.4986 0.2625 14.7126 0.7875C15.9266 1.3125 16.9836 2.025 17.8836 2.925C18.7836 3.825 19.4961 4.88333 20.0211 6.1C20.5461 7.31667 20.8086 8.61445 20.8086 9.99335C20.8086 11.3723 20.5461 12.6681 20.0211 13.8809C19.4961 15.0936 18.7836 16.1526 17.8836 17.0579C16.9836 17.9632 15.9253 18.6798 14.7086 19.2079C13.4919 19.736 12.1941 20 10.8152 20ZM10.8211 18.5C13.1794 18.5 15.1836 17.6708 16.8336 16.0125C18.4836 14.3542 19.3086 12.3458 19.3086 9.9875C19.3086 7.62917 18.4852 5.625 16.8383 3.975C15.1914 2.325 13.1815 1.5 10.8086 1.5C8.45859 1.5 6.45443 2.32343 4.79609 3.9703C3.13776 5.61718 2.30859 7.62708 2.30859 10C2.30859 12.35 3.13776 14.3542 4.79609 16.0125C6.45443 17.6708 8.46276 18.5 10.8211 18.5ZM10.8778 5.5C11.3817 5.5 11.8253 5.65417 12.2086 5.9625C12.5919 6.27083 12.7836 6.66413 12.7836 7.1424C12.7836 7.5808 12.6532 7.96191 12.3924 8.28573C12.1316 8.60953 11.837 8.91428 11.5086 9.2C11.1253 9.51667 10.7919 9.86987 10.5086 10.2596C10.2253 10.6494 10.0836 11.0878 10.0836 11.575C10.0836 11.7583 10.1536 11.9042 10.2936 12.0125C10.4336 12.1208 10.5969 12.175 10.7836 12.175C10.9836 12.175 11.1492 12.1083 11.2805 11.975C11.4117 11.8417 11.4961 11.675 11.5336 11.475C11.5836 11.125 11.7169 10.8083 11.9336 10.525C12.1503 10.2417 12.4022 9.98513 12.6894 9.7554C13.1022 9.41847 13.4419 9.025 13.7086 8.575C13.9753 8.125 14.1086 7.63655 14.1086 7.10965C14.1086 6.26988 13.7961 5.57083 13.1711 5.0125C12.5461 4.45417 11.8048 4.175 10.9473 4.175C10.3548 4.175 9.78359 4.3 9.23359 4.55C8.68359 4.8 8.23359 5.16667 7.88359 5.65C7.76693 5.81667 7.71276 5.99583 7.72109 6.1875C7.72943 6.37917 7.80834 6.53333 7.95782 6.65C8.14809 6.78333 8.34514 6.825 8.54897 6.775C8.75282 6.725 8.92269 6.60833 9.05859 6.425C9.27109 6.12662 9.53672 5.89785 9.85547 5.7387C10.1742 5.57957 10.515 5.5 10.8778 5.5Z" fill="white"/>
</svg>
