<svg width="25" height="13" viewBox="0 0 25 13" fill="none" xmlns="http://www.w3.org/2000/svg">
<path d="M6.25 12.75C4.52083 12.75 3.04688 12.1406 1.82812 10.9219C0.609375 9.70312 0 8.22917 0 6.5C0 4.77083 0.609375 3.29688 1.82812 2.07812C3.04688 0.859375 4.52083 0.25 6.25 0.25H10.625C10.8906 0.25 11.1133 0.340364 11.293 0.521093C11.4727 0.701843 11.5625 0.925802 11.5625 1.19297C11.5625 1.46016 11.4727 1.68229 11.293 1.85938C11.1133 2.03646 10.8906 2.125 10.625 2.125H6.25C5.03473 2.125 4.00174 2.54964 3.15103 3.39891C2.30034 4.24816 1.875 5.27941 1.875 6.49266C1.875 7.70589 2.30034 8.73958 3.15103 9.59375C4.00174 10.4479 5.03473 10.875 6.25 10.875H10.625C10.8906 10.875 11.1133 10.9654 11.293 11.1461C11.4727 11.3268 11.5625 11.5508 11.5625 11.818C11.5625 12.0852 11.4727 12.3073 11.293 12.4844C11.1133 12.6615 10.8906 12.75 10.625 12.75H6.25ZM8.59375 7.4375C8.32812 7.4375 8.10547 7.34714 7.92578 7.16641C7.74609 6.98566 7.65625 6.7617 7.65625 6.49453C7.65625 6.22734 7.74609 6.00521 7.92578 5.82812C8.10547 5.65104 8.32812 5.5625 8.59375 5.5625H16.4062C16.6719 5.5625 16.8945 5.65286 17.0742 5.83359C17.2539 6.01434 17.3438 6.2383 17.3438 6.50547C17.3438 6.77266 17.2539 6.99479 17.0742 7.17188C16.8945 7.34896 16.6719 7.4375 16.4062 7.4375H8.59375ZM14.375 12.75C14.1094 12.75 13.8867 12.6596 13.707 12.4789C13.5273 12.2982 13.4375 12.0742 13.4375 11.807C13.4375 11.5398 13.5273 11.3177 13.707 11.1406C13.8867 10.9635 14.1094 10.875 14.375 10.875H18.75C19.9653 10.875 20.9983 10.4504 21.849 9.60109C22.6997 8.75184 23.125 7.72059 23.125 6.50734C23.125 5.29411 22.6997 4.26042 21.849 3.40625C20.9983 2.55208 19.9653 2.125 18.75 2.125H14.375C14.1094 2.125 13.8867 2.03464 13.707 1.85391C13.5273 1.67316 13.4375 1.4492 13.4375 1.18203C13.4375 0.914844 13.5273 0.692708 13.707 0.515625C13.8867 0.338542 14.1094 0.25 14.375 0.25H18.75C20.4792 0.25 21.9531 0.859375 23.1719 2.07812C24.3906 3.29688 25 4.77083 25 6.5C25 8.22917 24.3906 9.70312 23.1719 10.9219C21.9531 12.1406 20.4792 12.75 18.75 12.75H14.375Z" fill="white"/>
</svg>
