<svg width="22" height="20" viewBox="0 0 22 20" fill="none" xmlns="http://www.w3.org/2000/svg">
<path d="M9.91024 11.106L8.22534 9.43705C8.08162 9.29333 7.90363 9.2198 7.69136 9.21646C7.47909 9.21314 7.29245 9.292 7.13142 9.45303C6.98103 9.60342 6.90582 9.78574 6.90582 9.99999C6.90582 10.2143 6.98103 10.3966 7.13142 10.547L9.25348 12.669C9.44112 12.8567 9.66005 12.9505 9.91024 12.9505C10.1604 12.9505 10.3794 12.8567 10.567 12.669L14.869 8.367C15.0234 8.21264 15.0996 8.03198 15.0976 7.82503C15.0956 7.61809 15.0194 7.43411 14.869 7.27308C14.708 7.11204 14.523 7.02886 14.314 7.02353C14.1051 7.01822 13.9201 7.09607 13.7591 7.2571L9.91024 11.106ZM7.27315 19.5322L5.83783 17.1187L3.12288 16.5358C2.88998 16.4906 2.70399 16.3681 2.56492 16.1685C2.42585 15.9689 2.37029 15.7526 2.39823 15.5197L2.66375 12.7269L0.817172 10.6148C0.657482 10.4445 0.577637 10.2395 0.577637 9.99999C0.577637 9.76044 0.657482 9.55549 0.817172 9.38514L2.66375 7.27308L2.39823 4.48028C2.37029 4.24737 2.42585 4.03111 2.56492 3.83149C2.70399 3.63185 2.88998 3.50941 3.12288 3.46417L5.83783 2.88126L7.27315 0.467744C7.39825 0.262794 7.56861 0.123053 7.78422 0.0485192C7.99981 -0.025997 8.21873 -0.0146809 8.44098 0.0824653L11.0002 1.16445L13.5594 0.0824653C13.7817 -0.0146809 14.0006 -0.025997 14.2162 0.0485192C14.4318 0.123053 14.6022 0.262794 14.7273 0.467744L16.1626 2.88126L18.8775 3.46417C19.1104 3.50941 19.2964 3.63185 19.4355 3.83149C19.5746 4.03111 19.6301 4.24737 19.6022 4.48028L19.3367 7.27308L21.1833 9.38514C21.343 9.55549 21.4228 9.76044 21.4228 9.99999C21.4228 10.2395 21.343 10.4445 21.1833 10.6148L19.3367 12.7269L19.6022 15.5197C19.6301 15.7526 19.5746 15.9689 19.4355 16.1685C19.2964 16.3681 19.1104 16.4906 18.8775 16.5358L16.1626 17.1187L14.7273 19.5322C14.6022 19.7372 14.4318 19.8769 14.2162 19.9515C14.0006 20.026 13.7817 20.0147 13.5594 19.9175L11.0002 18.8355L8.44098 19.9175C8.21873 20.0147 7.99981 20.026 7.78422 19.9515C7.56861 19.8769 7.39825 19.7372 7.27315 19.5322ZM8.35313 18.2527L11.0002 17.1307L13.6792 18.2527L15.1525 15.7613L18.0072 15.1065L17.7477 12.1799L19.6681 9.99999L17.7477 7.7881L18.0072 4.86154L15.1525 4.2387L13.6473 1.74732L11.0002 2.86925L8.32118 1.74732L6.84793 4.2387L3.99323 4.86154L4.25275 7.7881L2.33232 9.99999L4.25275 12.1799L3.99323 15.1384L6.84793 15.7613L8.35313 18.2527Z" fill="white"/>
</svg>
