<svg width="20" height="20" viewBox="0 0 20 20" fill="none" xmlns="http://www.w3.org/2000/svg">
<path d="M9.11767 18.2353V14.2036C8.09655 14.0558 7.19723 13.6565 6.41969 13.0056C5.64216 12.3548 5.11463 11.5369 4.8371 10.552C3.47965 10.3906 2.3341 9.81444 1.40047 8.8235C0.466825 7.83255 0 6.65609 0 5.2941V4.47966C0 3.89482 0.208246 3.39416 0.624737 2.97769C1.04121 2.56119 1.54187 2.35295 2.12671 2.35295H4.50228V2.12671C4.50228 1.54187 4.71051 1.04121 5.12698 0.624738C5.54346 0.208247 6.04412 0 6.62896 0H13.371C13.9559 0 14.4565 0.208247 14.873 0.624738C15.2895 1.04121 15.4977 1.54187 15.4977 2.12671V2.35295H17.8733C18.4581 2.35295 18.9588 2.56119 19.3753 2.97769C19.7917 3.39416 20 3.89482 20 4.47966V5.2941C20 6.65609 19.5332 7.83255 18.5995 8.8235C17.6659 9.81444 16.5204 10.3906 15.1629 10.552C14.8854 11.5369 14.3578 12.3548 13.5803 13.0056C12.8028 13.6565 11.9034 14.0558 10.8823 14.2036V18.2353H14.1855C14.4355 18.2353 14.645 18.3199 14.8142 18.4891C14.9833 18.6583 15.0678 18.8679 15.0678 19.1181C15.0678 19.3682 14.9833 19.5777 14.8142 19.7466C14.645 19.9155 14.4355 20 14.1855 20H5.81452C5.56452 20 5.35496 19.9154 5.18584 19.7462C5.01672 19.577 4.93216 19.3674 4.93216 19.1173C4.93216 18.8671 5.01672 18.6576 5.18584 18.4887C5.35496 18.3198 5.56452 18.2353 5.81452 18.2353H9.11767ZM4.50228 8.65611V4.11763H2.12671C2.02112 4.11763 1.93439 4.15157 1.86651 4.21945C1.79862 4.28734 1.76468 4.37407 1.76468 4.47966V5.2941C1.76468 6.10709 2.02185 6.82579 2.53618 7.45023C3.05052 8.07466 3.70588 8.47662 4.50228 8.65611ZM10.0027 12.5113C11.0341 12.5113 11.9099 12.1506 12.6301 11.4291C13.3503 10.7076 13.7104 9.83158 13.7104 8.80091V2.12671C13.7104 2.02112 13.6765 1.93439 13.6086 1.86651C13.5407 1.79862 13.454 1.76468 13.3484 1.76468H6.65158C6.54599 1.76468 6.45925 1.79862 6.39137 1.86651C6.32351 1.93439 6.28958 2.02112 6.28958 2.12671V8.80091C6.28958 9.83158 6.65057 10.7076 7.37255 11.4291C8.09453 12.1506 8.97124 12.5113 10.0027 12.5113ZM15.4977 8.65611C16.2941 8.47662 16.9495 8.07466 17.4638 7.45023C17.9781 6.82579 18.2353 6.10709 18.2353 5.2941V4.47966C18.2353 4.37407 18.2014 4.28734 18.1335 4.21945C18.0656 4.15157 17.9789 4.11763 17.8733 4.11763H15.4977V8.65611Z" fill="#FFFEFE"/>
</svg>
