<svg width="16" height="20" viewBox="0 0 16 20" fill="none" xmlns="http://www.w3.org/2000/svg">
<path d="M7.99983 20C7.56465 20 7.17987 19.8853 6.84549 19.6559C6.51113 19.4265 6.27721 19.1255 6.14373 18.7529H5.83089C5.38738 18.7529 5.00539 18.5926 4.68493 18.2722C4.36445 17.9517 4.20421 17.5697 4.20421 17.1262V13.5683C3.11002 12.9051 2.24905 12.016 1.6213 10.9009C0.99356 9.7859 0.679688 8.5923 0.679688 7.32014C0.679688 5.27913 1.38945 3.54885 2.80899 2.1293C4.22854 0.709768 5.95882 0 7.99983 0C10.0408 0 11.7711 0.709768 13.1907 2.1293C14.6102 3.54885 15.32 5.27913 15.32 7.32014C15.32 8.61455 15.0061 9.81371 14.3784 10.9177C13.7506 12.0216 12.8896 12.9051 11.7954 13.5683V17.1262C11.7954 17.5697 11.6352 17.9517 11.3147 18.2722C10.9943 18.5926 10.6123 18.7529 10.1688 18.7529H9.85592C9.72244 19.1255 9.48852 19.4265 9.15416 19.6559C8.81979 19.8853 8.43501 20 7.99983 20ZM5.83089 17.1262H10.1688V16.1085H5.83089V17.1262ZM5.83089 15.1491H10.1688V14.098H5.83089V15.1491ZM5.614 12.4714H7.35332V9.31388L5.4847 7.44526C5.35679 7.31735 5.29109 7.16754 5.28762 6.99583C5.28415 6.82412 5.34985 6.67084 5.4847 6.53599C5.61957 6.40112 5.77112 6.33368 5.93934 6.33368C6.10756 6.33368 6.2591 6.40112 6.39397 6.53599L7.99983 8.14184L9.60568 6.53599C9.7336 6.40808 9.88341 6.34238 10.0551 6.33891C10.2268 6.33542 10.3801 6.40112 10.515 6.53599C10.6498 6.67084 10.7172 6.82239 10.7172 6.99063C10.7172 7.15884 10.6498 7.31039 10.515 7.44526L8.64633 9.31388V12.4714H10.3857C11.3617 12.0014 12.157 11.3101 12.7715 10.3973C13.386 9.48456 13.6933 8.45883 13.6933 7.32014C13.6933 5.72959 13.142 4.38304 12.0395 3.28049C10.9369 2.17795 9.59038 1.62668 7.99983 1.62668C6.40927 1.62668 5.06272 2.17795 3.96018 3.28049C2.85764 4.38304 2.30636 5.72959 2.30636 7.32014C2.30636 8.45883 2.61363 9.48456 3.22816 10.3973C3.8427 11.3101 4.63797 12.0014 5.614 12.4714Z" fill="white"/>
</svg>
