<svg width="26" height="20" viewBox="0 0 26 20" fill="none" xmlns="http://www.w3.org/2000/svg">
<path fill-rule="evenodd" clip-rule="evenodd" d="M9.125 19.2125C10.3417 19.7375 11.6333 20 13 20C14.3833 20 15.6833 19.7375 16.9 19.2125C18.1167 18.6875 19.175 17.9708 20.075 17.0625C20.975 16.1542 21.6875 15.0917 22.2125 13.875C22.7375 12.6583 23 11.3667 23 10C23 8.61667 22.7375 7.31667 22.2125 6.1C21.6875 4.88333 20.975 3.825 20.075 2.925C19.175 2.025 18.1167 1.3125 16.9 0.7875C15.6833 0.2625 14.3833 0 13 0C11.6333 0 10.3417 0.2625 9.125 0.7875C7.90833 1.3125 6.84583 2.025 5.9375 2.925C5.02917 3.825 4.3125 4.88333 3.7875 6.1C3.2625 7.31667 3 8.61667 3 10C3 11.3667 3.2625 12.6583 3.7875 13.875C4.3125 15.0917 5.02917 16.1542 5.9375 17.0625C6.84583 17.9708 7.90833 18.6875 9.125 19.2125ZM19.025 16.0125C17.375 17.6708 15.3667 18.5 13 18.5C10.65 18.5 8.64583 17.6708 6.9875 16.0125C5.32917 14.3542 4.5 12.35 4.5 10C4.5 7.63333 5.32917 5.625 6.9875 3.975C8.64583 2.325 10.65 1.5 13 1.5C15.3667 1.5 17.375 2.325 19.025 3.975C20.675 5.625 21.5 7.63333 21.5 10C21.5 12.35 20.675 14.3542 19.025 16.0125ZM8.22195 5.2098L12.6698 9.41404C12.6878 9.43099 12.6988 9.45397 12.7008 9.47857L12.9302 12.2876C12.9402 12.4094 13.1181 12.4104 13.1295 12.2888L13.3919 9.4773C13.3941 9.45347 13.4048 9.43123 13.4221 9.41462L17.7794 5.2127C17.8491 5.14555 17.964 5.20656 17.9474 5.30186L17.0302 10.5613C17.0257 10.5867 17.0116 10.6094 16.9908 10.6247L15.4915 11.725C15.4611 11.7474 15.4458 11.785 15.452 11.8222L15.7143 13.3868C15.7185 13.4123 15.7127 13.4385 15.6981 13.4599L14.0629 15.8407C14.017 15.9076 13.9147 15.8948 13.8866 15.8187L13.122 13.745C13.0893 13.6563 12.9631 13.6583 12.9333 13.7481L12.2485 15.8119C12.2226 15.8898 12.1191 15.9051 12.0718 15.838L10.3958 13.4602C10.3806 13.4387 10.3745 13.412 10.3789 13.3861L10.6408 11.8231C10.6472 11.7854 10.6314 11.7474 10.6003 11.7252L9.05629 10.6245C9.0351 10.6094 9.02064 10.5866 9.01597 10.561L8.05489 5.30044C8.03752 5.20537 8.15172 5.14341 8.22195 5.2098Z" fill="white"/>
</svg>
