<svg width="25" height="20" viewBox="0 0 25 20" fill="none" xmlns="http://www.w3.org/2000/svg">
<path d="M14.0875 16.9458L13.2237 19.3671C13.1579 19.5501 13.0412 19.7014 12.8737 19.8208C12.7062 19.9403 12.5219 20 12.3208 20C11.9805 20 11.708 19.8615 11.5031 19.5844C11.2982 19.3073 11.2625 19.0021 11.3958 18.6689L15.1958 8.62281C15.2791 8.43954 15.4024 8.28992 15.5656 8.17395C15.7288 8.05798 15.911 7.99999 16.1123 7.99999H16.8669C17.0681 7.99999 17.2507 8.05833 17.4146 8.17501C17.5785 8.29167 17.7014 8.44166 17.7833 8.625L21.5833 18.704C21.7166 19.0208 21.6854 19.316 21.4896 19.5896C21.2937 19.8632 21.03 20 20.6983 20C20.4828 20 20.2944 19.9392 20.1333 19.8177C19.9722 19.6962 19.8534 19.534 19.7771 19.3312L18.9499 16.9458H14.0875ZM14.6958 15.1958H18.2833L16.5333 10.25H16.4458L14.6958 15.1958ZM7.99999 12L3.70624 16.2937C3.51458 16.4854 3.27916 16.5813 2.99998 16.5813C2.72082 16.5813 2.48541 16.4854 2.29375 16.2937C2.10207 16.1021 2.00623 15.8667 2.00623 15.5875C2.00623 15.3083 2.10207 15.0729 2.29375 14.8813L6.64165 10.5333C6.01109 9.83466 5.45936 9.11104 4.98644 8.36245C4.51353 7.61388 4.10138 6.82641 3.75 6.00002H5.83749C6.14165 6.6014 6.46318 7.14132 6.80207 7.6198C7.14095 8.09827 7.55137 8.60556 8.03331 9.14167C8.7722 8.33751 9.38436 7.51598 9.86978 6.67708C10.3552 5.83819 10.7611 4.94584 11.0875 4.00001H0.998865C0.715861 4.00001 0.478628 3.90418 0.287166 3.71252C0.0957221 3.52084 0 3.28334 0 3.00001C0 2.71619 0.0958305 2.47828 0.287491 2.28628C0.47917 2.09429 0.716674 1.9983 1 1.9983H6.99999V0.996564C6.99999 0.712747 7.09582 0.475703 7.28748 0.285433C7.47916 0.0951442 7.71667 0 7.99999 0C8.28349 0 8.52112 0.0958401 8.71289 0.287519C8.90466 0.479179 9.00054 0.716673 9.00054 1V2.00001H15.0039C15.2874 2.00001 15.5243 2.09584 15.7146 2.28752C15.9048 2.47918 16 2.71668 16 3.00001C16 3.28334 15.9042 3.52084 15.7125 3.71252C15.5208 3.90418 15.2833 4.00001 15 4.00001H13.0885C12.7364 5.17778 12.2614 6.32452 11.6634 7.44023C11.0654 8.55593 10.3262 9.60501 9.44582 10.5875L11.8375 13.0333L11.0875 15.0875L7.99999 12Z" fill="white"/>
</svg>
